<?xml version="1.0" encoding="UTF-8" standalone="no"?>
<!DOCTYPE svg PUBLIC "-//W3C//DTD SVG 1.1//EN" "http://www.w3.org/Graphics/SVG/1.1/DTD/svg11.dtd">
<svg width="100%" height="100%" viewBox="0 0 1024 1024" version="1.1" xmlns="http://www.w3.org/2000/svg" xmlns:xlink="http://www.w3.org/1999/xlink" xml:space="preserve" xmlns:serif="http://www.serif.com/" style="fill-rule:evenodd;clip-rule:evenodd;stroke-linejoin:round;stroke-miterlimit:2;">
    <g id="Outer" transform="matrix(1.04488,0,0,1.04488,-1.91097,-23.7711)">
        <circle cx="491.84" cy="512.761" r="478.526" style="fill:rgb(233,233,233);"/>
        <clipPath id="_clip1">
            <circle cx="491.84" cy="512.761" r="478.526"/>
        </clipPath>
        <g clip-path="url(#_clip1)">
            <g id="Germany" transform="matrix(0.957052,0,0,0.607409,364.058,148.315)">
                <g transform="matrix(1.03094,0,0,0.914403,-17.4183,230.794)">
                    <rect x="417.396" y="458.448" width="290.995" height="109.361" style="fill:rgb(247,200,0);"/>
                </g>
                <g transform="matrix(1.03094,0,0,0.914403,-17.4183,130.794)">
                    <rect x="417.396" y="458.448" width="290.995" height="109.361" style="fill:rgb(214,0,0);"/>
                </g>
                <g transform="matrix(1.03094,0,0,0.914403,-17.4183,30.794)">
                    <rect x="417.396" y="458.448" width="290.995" height="109.361"/>
                </g>
            </g>
            <g id="Austria" transform="matrix(0.45552,0,0,0.303718,-22.0663,285.094)">
                <g transform="matrix(0.882183,0,0,0.995798,25.8363,202.062)">
                    <rect x="49.26" y="449.426" width="340.065" height="100.422" style="fill:rgb(196,34,34);"/>
                </g>
                <g transform="matrix(0.882183,0,0,0.995798,25.8363,102.062)">
                    <rect x="49.26" y="449.426" width="340.065" height="100.422" style="fill:white;"/>
                </g>
                <g transform="matrix(0.882183,0,0,0.995798,25.8363,2.09952)">
                    <rect x="49.26" y="449.426" width="340.065" height="100.422" style="fill:rgb(196,34,34);"/>
                </g>
            </g>
            <g id="Swiss" transform="matrix(0.45552,0,0,0.45552,-148.108,260.889)">
                <g transform="matrix(0.868581,0,0,0.740537,63.867,169.412)">
                    <rect x="313.286" y="517.896" width="345.391" height="270.074" style="fill:rgb(196,34,34);"/>
                </g>
                <g transform="matrix(0.873797,0,0,2.59227,42.0009,-551.89)">
                    <rect x="478.696" y="436.536" width="58.817" height="56.48" style="fill:white;"/>
                </g>
                <g transform="matrix(5.35047e-17,0.829754,-2.72986,1.58731e-16,1754.76,231.331)">
                    <rect x="478.696" y="436.536" width="58.817" height="56.48" style="fill:white;"/>
                </g>
            </g>
        </g>
        <path d="M491.84,34.235C755.945,34.235 970.366,248.655 970.366,512.761C970.366,776.866 755.945,991.287 491.84,991.287C227.734,991.287 13.314,776.866 13.314,512.761C13.314,248.655 227.734,34.235 491.84,34.235ZM491.84,53.376C745.381,53.376 951.224,259.219 951.224,512.761C951.224,766.302 745.381,972.146 491.84,972.146C238.298,972.146 32.455,766.302 32.455,512.761C32.455,259.219 238.298,53.376 491.84,53.376Z" style="fill:rgb(78,78,78);"/>
    </g>
    <g id="Inner" transform="matrix(0.8359,0,0,0.8359,100.871,83.3831)">
        <circle cx="491.84" cy="512.761" r="478.526" style="fill:rgb(233,233,233);"/>
        <clipPath id="_clip2">
            <circle cx="491.84" cy="512.761" r="478.526"/>
        </clipPath>
        <g clip-path="url(#_clip2)">
            <g id="Inner1" serif:id="Inner" transform="matrix(0.95,0,0,0.95,24.592,25.638)">
                <circle cx="491.84" cy="512.761" r="478.526" style="fill:rgb(233,233,233);"/>
                <path d="M491.84,34.235C755.945,34.235 970.366,248.655 970.366,512.761C970.366,776.866 755.945,991.287 491.84,991.287C227.734,991.287 13.314,776.866 13.314,512.761C13.314,248.655 227.734,34.235 491.84,34.235ZM491.84,46.828C748.995,46.828 957.773,255.605 957.773,512.761C957.773,769.916 748.995,978.694 491.84,978.694C234.684,978.694 25.906,769.916 25.906,512.761C25.906,255.605 234.684,46.828 491.84,46.828Z" style="fill:rgb(238,77,46);"/>
            </g>
            <g transform="matrix(2.02821,0,0,2.02821,-134.846,-17.2497)">
                <g id="BombGuy">
                    <g id="Guy">
                        <g id="g24">
                            <path id="path38" d="M314.4,418.776C311.082,417.108 309.097,412.294 306.572,410.767C304.048,409.24 302.392,406.094 301.831,405.475C301.263,404.85 305.497,402.249 309.528,398.277C313.516,394.348 317.65,389.417 318.714,387.319C321.14,382.534 323.803,382.487 327.959,387.155C331.658,391.308 332.144,397.063 328.803,397.13C326.789,397.171 326.783,397.271 328.693,398.954C331.797,401.689 331.739,401.679 328.348,404.59C327.871,404.998 325.19,405.975 324.483,406.676C323.963,407.192 324.155,406.914 324.334,407.458C324.521,408.026 324.336,408.812 324.29,409.862C324.235,411.104 323.365,411.524 321.805,411.062C320.484,410.671 318.735,410.468 318.764,409.808C318.793,409.149 318.688,407.952 317.685,407.951C316.682,407.951 315.82,408.868 315.771,409.988C315.722,411.109 316.793,411.327 317.775,411.328C318.889,411.328 318.122,412.239 319.171,413.18C320.154,414.062 319.568,412.607 321.588,414.391C323.723,416.277 324.068,414.893 323.958,417.393C323.887,419.012 323.504,419.033 323.2,419.769C322.989,420.278 322.815,420.733 322.218,421.102C319.667,422.677 320.32,421.753 316.336,419.75L314.4,418.776ZM290.026,399.829C280.05,396.55 276.624,394.255 270.361,386.66C264.97,380.122 255.57,362.479 255.73,358.858C255.825,356.692 259.82,358.411 261.469,360.324C262.073,361.026 267.225,363.048 272.722,365.35C281.308,368.944 284.296,369.987 294.872,370.093C301.711,370.162 308.833,369.507 310.891,368.62C316.365,366.263 322.496,367.909 322.296,371.681C322.094,375.496 317.755,385.174 314.69,388.645C300.687,404.508 302.189,403.827 290.026,399.829ZM289.061,367.541C287.735,367.265 282.602,366.149 277.827,364.326C273.052,362.503 268.471,360.408 267.474,360.408C266.477,360.408 265.683,359.889 265.711,359.256C265.739,358.622 263.621,357.001 261.005,355.653C258.389,354.305 256.272,352.684 256.299,352.051C256.327,351.417 255.529,350.899 254.526,350.899C253.523,350.899 252.724,350.391 252.751,349.77C252.779,349.149 251.538,347.865 249.994,346.918C248.45,345.97 245.349,342.352 243.102,338.877C240.856,335.403 237.705,330.785 236.1,328.614C234.495,326.444 233.216,323.905 233.257,322.973C233.298,322.041 231.364,319.352 228.96,316.996C225.9,313.999 225.479,313.205 227.556,314.35C229.189,315.249 231.953,317.369 233.698,319.059C238.493,323.702 246.797,325.19 256.483,323.14C265.156,321.305 267.427,320.282 267.52,318.168C267.553,317.435 268.739,315.179 270.157,313.155C273.272,308.709 275.303,300.648 273.308,300.647C272.556,300.647 271.887,301.87 271.821,303.364C271.755,304.858 271.122,306.08 270.413,306.08C269.705,306.08 269.412,306.642 269.762,307.329C270.964,309.69 263.887,314.228 259.004,314.228C256.411,314.227 251.751,315.529 248.648,317.121C243.078,319.979 242.942,319.983 238.004,317.497C235.252,316.112 232.745,314.585 232.431,314.105C232.118,313.625 230.614,312.79 229.089,312.25C227.564,311.709 224.493,309.399 222.265,307.115C216.468,301.173 207.996,300.671 193.933,305.435C167.522,314.383 163.022,316.151 162.958,317.6C162.92,318.452 161.031,320.968 158.759,323.192C156.487,325.417 154.039,328.209 153.317,329.397C151.981,331.599 142.782,333.908 142.865,332.021C142.958,329.91 148.8,325.461 154.504,323.157C157.739,321.85 160.424,319.915 160.47,318.856C160.517,317.798 159.99,316.931 159.298,316.931C157.756,316.931 147.589,322.619 142.641,326.25C137.607,329.945 135.3,328.661 136.531,322.851C137.28,319.319 137.086,318.287 135.675,318.287C134.547,318.286 133.459,320.132 132.825,323.123C131.996,327.033 132.272,328.475 134.263,330.646C137.987,334.708 137.322,338.66 132.915,338.659C128.871,338.659 126.923,336.24 129.528,334.453C130.754,333.612 130.272,333.262 127.87,333.247C124.745,333.227 124.605,332.99 126.054,330.17C127.616,327.13 127.61,327.128 124.902,329.701C123.404,331.124 117.884,332.04 117.812,331.738C116.836,327.638 121.766,323.402 124.596,320.21C128.018,316.35 131.691,315.351 128.846,318.965C127.964,320.085 127.615,321.002 128.071,321.002C129.347,321.002 138.928,312.476 138.377,311.83C138.11,311.516 142.851,306.387 148.913,300.432C156.265,293.21 163.044,287.939 169.275,284.601C175.507,281.263 181.577,276.544 187.511,270.423C192.402,265.378 197.096,261.25 197.941,261.25C198.787,261.25 200.809,258.388 202.435,254.89C205.28,248.773 205.418,248.664 206.08,252.05C207.109,257.315 213.289,267.448 217.612,270.959C219.71,272.662 222.025,274.995 222.758,276.143C223.805,277.784 226.781,278.231 236.651,278.232C247.874,278.234 249.951,277.839 256.144,274.522C259.957,272.481 265.404,268.509 268.248,265.696C272.484,261.506 273.767,259.105 275.335,252.431C278.171,240.359 278.399,230.067 275.93,225.556C273.893,221.834 273.906,221.717 276.682,218.581C280.681,214.064 280.343,206.163 275.992,202.412C272.994,199.828 272.654,199.799 270.444,201.937C269.149,203.189 267.449,204.214 266.666,204.214C264.242,204.214 265.268,200.373 267.94,199.441C269.33,198.956 273.446,195.571 277.088,191.919C281.319,187.676 285.26,184.956 288.005,184.384C290.368,183.892 293.018,182.878 293.895,182.129C295.527,180.737 298.119,179.111 308.856,172.747C312.222,170.751 315.736,168.154 316.664,166.976C317.592,165.797 318.86,164.833 319.483,164.833C320.105,164.833 324.479,162.104 329.202,158.768C333.925,155.433 340.219,151.647 343.189,150.355C346.159,149.063 350.419,146.843 352.656,145.422C354.892,144.001 356.707,143.179 356.688,143.595C356.625,145.041 368.64,137.784 371.123,134.877C372.496,133.269 375.863,130.71 378.605,129.19C381.348,127.67 385.572,124.68 387.992,122.545C390.412,120.41 393.007,118.663 393.759,118.663C394.511,118.663 396.924,116.83 399.123,114.589C401.321,112.348 403.677,110.515 404.358,110.515C405.038,110.515 407.943,108.682 410.811,106.441C413.68,104.201 416.586,102.368 417.269,102.368C417.952,102.368 424.514,93.605 426.287,93.413C438.127,92.128 426.169,97.089 420.2,104.177C415.284,110.014 411.47,115.459 410.58,120.448C409.448,126.8 409.459,126.831 413.748,128.875C416.116,130.003 418.023,131.617 417.986,132.46C417.89,134.622 403.731,132.818 400.274,130.204C398.795,129.086 397.019,128.171 396.327,128.171C394.015,128.171 394.863,132.017 397.757,134.662L400.617,137.276L397.091,140.085C395.152,141.629 390.168,147.678 386.015,153.527C378.482,164.136 374.786,168.228 364.912,176.891C360.311,180.928 359.338,181.29 356.737,179.936C354.974,179.017 354.066,178.95 354.482,179.767C354.865,180.52 354.663,181.136 354.033,181.136C353.403,181.135 352.596,180.066 352.241,178.758C351.886,177.451 351.288,175.532 350.913,174.495C350.483,173.305 350.723,172.958 351.563,173.556C352.296,174.078 352.922,173.893 352.955,173.146C352.988,172.399 352.48,171.408 351.827,170.943C349.672,169.408 349.057,174.023 350.847,178.296C352.399,182.001 354.436,183.268 357.798,182.621C359.328,182.326 357.163,188.238 354.612,191.322C353.376,192.816 351.267,195.531 349.925,197.355C346.253,202.349 341.449,207.472 338.102,209.967C336.455,211.193 334.889,213.611 334.62,215.34C334.351,217.069 333.235,220.928 332.14,223.916C331.045,226.904 330.48,230.559 330.885,232.039C331.481,234.214 332.151,233.33 334.383,227.426C335.902,223.409 337.403,220.67 337.719,221.34C338.035,222.011 338.76,227.612 339.33,233.788C340.161,242.799 340.011,246.22 338.571,251.105C337.008,256.407 336.35,257.193 333.468,257.192C328.546,257.192 322.49,259.859 321.016,262.677C320.301,264.044 319.62,267.341 319.503,270.004C319.385,272.668 318.715,274.847 318.013,274.847C316.139,274.847 309.713,270.866 305.291,266.965C302.46,264.468 301.054,263.964 300.014,265.071C298.157,267.048 299.839,269.445 306.85,274.806C312.221,278.914 319.356,280.305 320.994,277.564C321.44,276.817 322.552,276.206 323.464,276.206C325.003,276.206 328.589,273.137 336.9,264.706C338.73,262.85 341.049,258.542 342.054,255.133C344.333,247.401 344.096,231.529 341.564,222.287L339.719,215.553L346.032,208.87C349.504,205.195 353.895,200.126 355.79,197.607C359.894,192.151 361.459,192.332 372.634,199.56C381.252,205.135 386.636,210.616 385.746,212.91C385.41,213.778 386.422,216.577 387.996,219.13C391.237,224.387 391.527,228.02 388.796,229.168C387.774,229.598 386.87,231.497 386.786,233.388C386.621,237.14 388.669,238.052 389.933,234.789C390.368,233.669 391.485,232.752 392.417,232.752C393.639,232.752 394.194,230.861 394.41,225.961L394.709,219.17L408.391,219.173C421.102,219.176 422.612,219.469 429.693,223.299C438.77,228.21 450.123,240.697 448.27,243.731C447.621,244.793 446.966,248.295 446.814,251.512C446.557,256.952 445.843,258.13 436.631,268.301C429.376,276.312 424.48,280.439 418.339,283.72C413.728,286.183 409.042,289.17 407.927,290.357C405.452,292.991 396.895,293.404 398.412,290.816C398.959,289.883 402.253,285.299 405.732,280.631C409.211,275.962 411.424,272.143 410.65,272.143C408.245,272.142 404.418,274.871 404.34,276.641C404.271,278.205 399.921,283.007 398.573,283.007C398.246,283.007 398.154,279.034 398.368,274.178C398.587,269.198 399.287,265.35 399.973,265.35C400.641,265.35 401.229,264.434 401.278,263.313C401.387,260.833 398.524,260.632 396.667,262.991C395.924,263.934 394.856,270.504 394.293,277.591C393.272,290.451 392.757,292.208 384.464,311.156C379.938,321.5 368.227,336.63 359.622,343.254C355.145,346.701 351.275,350.009 351.024,350.605C349.007,355.377 324.058,364.49 313.01,364.488C310.443,364.488 307.741,365.87 306.946,366.879C305.575,368.62 295.012,368.782 289.061,367.541L289.061,367.541ZM328.286,331.435C329.553,330.436 330.4,328.872 330.168,327.959C329.898,326.899 328.633,327.555 326.668,329.775C323.408,333.457 324.413,334.488 328.286,331.435ZM183.543,292.006C183.651,289.542 178.382,282.955 176.394,283.07C175.523,283.121 175.975,283.806 177.398,284.593C178.821,285.38 180.56,287.784 181.263,289.934C182.653,294.188 183.416,294.882 183.543,292.006ZM111.526,338.588C40.747,107.149 76.137,222.868 111.526,338.588ZM249.131,321.507C249.237,319.114 254.238,317.042 259.661,317.145C263.002,317.208 264.766,317.539 263.581,317.881C262.395,318.222 261.397,319.135 261.363,319.909C261.328,320.717 259.501,321.08 257.069,320.761C254.742,320.455 252.816,320.693 252.789,321.291C252.763,321.888 251.921,322.376 250.917,322.376C249.914,322.376 249.11,321.985 249.131,321.507ZM219.426,268.044C216.058,263.935 211.674,257.401 209.684,253.525L206.064,246.477L207.496,233.432C208.571,223.635 209.55,219.557 211.425,217.051C212.798,215.216 214.496,213.715 215.199,213.715C216.021,213.715 215.939,214.396 214.968,215.63C212.725,218.479 217.672,222.295 221.055,220.325C223.054,219.161 223.37,218.046 222.864,213.938C222.092,207.672 222.167,207.745 216.404,207.667C213.756,207.632 211.602,207.283 211.617,206.893C211.632,206.503 213.427,203.906 215.605,201.121C219.828,195.722 222.458,195.011 228.844,197.541C232.22,198.879 233.042,198.615 237.327,194.825C244.895,188.131 250.131,189.388 259.941,200.257L266.187,207.176L270.012,204.724C273.626,202.408 273.948,202.401 275.821,204.602C277.059,206.056 277.249,206.932 276.327,206.932C275.515,206.931 274.878,206.32 274.911,205.573C275.054,202.32 272.944,204.713 270.55,210.521C268.51,215.468 268.238,217.286 269.281,219.005C275.688,229.557 276.307,234.724 272.578,246.532C269.637,255.847 264.571,263.009 257.337,268.082C248.346,274.386 242.453,276.305 233.387,275.881C225.624,275.518 225.491,275.443 219.426,268.044L219.426,268.044ZM241.474,264.608C246.268,261.559 249.505,257.78 249.624,255.093C249.646,254.593 247.712,256.019 245.326,258.261C239.805,263.45 232.093,265.127 227.996,262.028C226.399,260.821 225.137,258.808 225.192,257.555C225.267,255.866 224.921,255.672 223.855,256.807C221.226,259.605 223.333,265.149 227.549,266.53C233.706,268.545 235.722,268.267 241.474,264.608ZM238.451,246.454C241.403,244.584 242.334,242.98 242.815,238.941C243.785,230.788 241.939,228.118 240.797,236.023C239.774,243.108 237.203,245.881 236.535,240.62C236.235,238.258 236.048,238.574 235.776,241.9C235.401,246.504 231.671,248.514 231.87,244.005C231.94,242.417 231.56,242.134 230.654,243.099C228.84,245.029 230.247,249.052 232.695,248.931C233.796,248.877 236.386,247.762 238.451,246.454ZM227.899,233.475C229.75,231.644 231.297,229.39 231.338,228.468C231.378,227.545 229.685,228.555 227.574,230.712C224.138,234.222 223.551,234.416 221.977,232.567C220.403,230.718 220.509,230.112 222.995,226.791C224.522,224.75 225.511,222.775 225.193,222.401C224.29,221.341 219.164,228.756 219.052,231.283C218.937,233.895 221.087,236.805 223.131,236.805C223.903,236.805 226.049,235.307 227.899,233.475ZM241.516,211.74C241.108,208.532 241.37,208.389 248.372,208.006L255.652,207.608L253.385,204.291C251.525,201.567 250.02,200.973 244.983,200.972C238.991,200.972 228.73,204.836 228.629,207.132C228.601,207.765 230.287,208.284 232.375,208.284C235.562,208.285 235.922,208.603 234.616,210.262C232.399,213.078 233.896,215.075 238.222,215.076C241.514,215.076 241.891,214.695 241.516,211.74ZM323.187,269.201C323.303,266.57 326.801,263.241 330.802,261.954C332.581,261.382 333.35,261.462 332.618,262.144C331.921,262.793 329.493,265.115 327.223,267.303C324.287,270.132 323.121,270.68 323.187,269.201L323.187,269.201ZM463.869,266.037C460.647,262.134 459.056,261.283 454.979,261.283L450.013,261.282L450.305,254.657C450.491,250.426 451.283,247.422 452.495,246.342C454.704,244.375 455.208,239.387 453.411,237.276C452.524,236.234 453.82,235.541 457.93,234.858C461.099,234.332 464.414,233.597 465.296,233.226C466.179,232.855 467.491,233.905 468.211,235.561C469.734,239.06 469.948,247.628 468.537,248.573C466.764,249.76 467.379,252.927 469.507,253.571C471.286,254.108 471.182,254.356 468.828,255.187C465.122,256.495 465.262,257.815 469.471,261.284C471.731,263.147 472.94,265.369 472.847,267.489C472.631,272.386 468.567,271.729 463.869,266.037ZM274.459,215.84C274.51,214.675 275.099,213.722 275.768,213.723C276.437,213.723 276.959,214.298 276.928,215.001C276.897,215.704 276.308,216.656 275.618,217.118C274.929,217.58 274.407,217.004 274.459,215.84ZM421.819,128.678C421.845,127.835 420.26,126.386 418.294,125.457C416.328,124.529 414.775,123.079 414.842,122.236C415.033,119.849 418.662,112.339 418.687,114.278C418.702,115.405 419.728,115.72 421.654,115.187C425.225,114.199 426.858,116.625 423.852,118.453C422.072,119.536 421.906,120.341 422.901,123.076C423.634,125.089 423.649,127.137 422.938,128.299C422.279,129.378 421.791,129.543 421.819,128.678L421.819,128.678ZM422.63,109.838C423.512,108.718 425.366,107.801 426.749,107.802C429.223,107.802 429.224,107.836 426.817,109.796C423.406,112.573 420.453,112.604 422.63,109.838L422.63,109.838Z" style="fill:rgb(228,207,146);fill-rule:nonzero;"/>
                            <path id="path36" d="M429.741,96.608C429.776,95.817 431.092,95.796 431.741,96.258C432.39,96.719 432.908,97.367 432.894,97.696C432.88,98.025 432.32,98.295 431.651,98.295C430.982,98.295 429.706,97.399 429.741,96.608Z" style="fill:rgb(222,179,152);fill-rule:nonzero;"/>
                            <path id="path34" d="M207.804,216.117C208.115,214.394 209.077,213.209 209.983,213.43C210.974,213.671 211.375,213.054 211.013,211.845C210.419,209.859 212.618,208.282 215.98,208.282C216.968,208.282 217.445,208.836 217.041,209.514C216.636,210.191 217.414,210.425 218.77,210.035C220.149,209.637 221.206,209.992 221.169,210.841C221.132,211.675 219.54,212.357 217.631,212.357C215.608,212.357 212.719,213.783 210.704,215.777L207.248,219.198L207.804,216.117ZM217.274,216.431C217.307,215.684 217.881,215.073 218.55,215.073C219.219,215.074 219.739,215.685 219.706,216.432C219.673,217.179 219.099,217.79 218.43,217.79C217.762,217.79 217.241,217.178 217.274,216.431ZM235.105,204.789C236.341,203.473 249.482,203.118 250.126,204.382C250.459,205.035 247.051,205.57 242.552,205.569C238.054,205.568 234.702,205.217 235.105,204.789Z" style="fill:rgb(149,142,142);fill-rule:nonzero;"/>
                            <path id="path32" d="M312.264,416.779C312.79,415.42 311.876,415.637 310.374,415.637C309.119,415.637 307.885,414.392 307.587,412.825C307.076,410.136 307.739,408.816 311.231,411.943C315.537,415.798 316.397,418.817 313.529,418.817C312.202,418.816 311.753,418.095 312.264,416.779ZM320.751,413.527C320.37,412.78 320.08,410.026 320.748,410.026C321.417,410.026 323.596,410.217 323.976,410.964C324.357,411.711 324.405,415.755 323.736,415.755C323.067,415.755 321.132,414.274 320.751,413.527L320.751,413.527ZM315.482,409.488C315.818,408.507 316.994,407.953 317.886,407.626C318.813,407.287 319.567,408.376 319.218,409.395C318.882,410.375 317.877,411.445 316.985,411.771C316.058,412.111 315.133,410.506 315.482,409.488ZM322.563,406.503C322.158,405.707 322.099,404.764 322.433,404.408C322.768,404.052 323.324,404.703 323.669,405.856C324.386,408.25 323.667,408.671 322.563,406.503L322.563,406.503Z" style="fill:rgb(165,150,105);fill-rule:nonzero;"/>
                            <path id="path30" d="M112.808,335.427C111.95,332.562 113.422,330.508 116.333,330.508C118.17,330.508 118.648,331.264 118.255,333.55C117.645,337.101 113.715,338.454 112.808,335.427Z" style="fill:rgb(74,247,15);fill-rule:nonzero;"/>
                            <path id="path28" d="M426.163,94.908C425.795,93.682 426.107,92.027 426.854,91.232C428.799,89.162 432.226,91.054 431.618,93.861C430.942,96.987 427.011,97.741 426.163,94.908Z" style="fill:rgb(231,36,31);fill-rule:nonzero;"/>
                            <path id="path26" d="M316.045,422.052C314.197,420.902 309.658,417.66 310.072,417.219C310.486,416.778 315.485,419.155 317.069,420.127C322.08,423.204 323.905,421.218 323.86,412.734C323.827,406.378 324.141,405.236 325.921,405.236C329.159,405.236 330.968,400.965 328.612,398.885C326.82,397.303 326.834,397.17 328.803,397.13C332.144,397.063 331.658,391.308 327.959,387.155C323.803,382.487 321.14,382.534 318.714,387.319C317.65,389.417 313.504,394.361 309.5,398.306L302.22,405.478L305.167,408.412C306.788,410.025 308.389,412.405 308.723,413.7C309.097,415.145 310.073,415.742 311.251,415.247C312.637,414.664 312.869,415.715 312.259,417.289C311.502,419.24 311.155,418.527 308.378,416.208C303.921,412.487 300.048,408.03 300.107,406.689C300.135,406.054 298.294,405.141 296.017,404.659C282.975,401.899 269.236,393.738 265.128,386.31C259.417,375.983 252.838,360.755 252.014,355.957C251.658,353.883 249.278,349.98 246.724,347.284C242.129,342.431 226.98,319.639 224.183,313.37C222.184,308.89 214.57,304.551 211.734,306.275C210.543,307 208.626,307.448 207.476,307.271C206.325,307.094 201.219,308.313 196.129,309.979C173.848,317.273 166.491,320.221 166.418,321.885C166.375,322.851 164.645,324.993 162.572,326.644C160.499,328.295 158.489,330.605 158.104,331.778C157.172,334.617 150.459,337.754 144.418,338.173C141.734,338.359 139.127,338.545 138.623,338.586C138.12,338.626 137.668,339.577 137.618,340.697C137.565,341.91 136.421,342.727 134.793,342.716C130.181,342.684 126.653,341.152 126.738,339.218C126.783,338.206 125.063,336.863 122.917,336.234C118.936,335.066 115.882,331.371 119.444,331.335C120.524,331.323 124.14,330.24 125.392,329.13C127.514,327.251 127.561,327.322 126.077,330.17C124.604,332.996 124.739,333.227 127.87,333.247C130.272,333.261 130.754,333.612 129.528,334.453C126.923,336.24 128.871,338.659 132.915,338.659C137.322,338.66 137.987,334.708 134.263,330.646C132.272,328.475 131.996,327.033 132.825,323.123C133.459,320.132 134.547,318.286 135.675,318.287C137.087,318.287 137.28,319.319 136.531,322.851C135.3,328.661 137.607,329.944 142.641,326.25C147.589,322.619 157.756,316.931 159.299,316.931C159.99,316.931 160.517,317.798 160.47,318.856C160.424,319.915 157.739,321.85 154.504,323.157C148.8,325.461 142.958,329.91 142.865,332.021C142.782,333.908 151.981,331.599 153.317,329.397C154.039,328.209 156.488,325.417 158.759,323.192C161.031,320.968 162.92,318.452 162.958,317.6C163.022,316.151 167.522,314.383 193.934,305.435C207.996,300.671 216.468,301.173 222.265,307.115C224.493,309.399 227.564,311.709 229.089,312.25C230.614,312.79 232.118,313.625 232.432,314.105C232.745,314.585 235.252,316.112 238.004,317.497C242.942,319.983 243.078,319.978 248.648,317.121C251.751,315.529 256.411,314.227 259.004,314.228C263.887,314.228 270.964,309.69 269.762,307.329C269.412,306.642 269.705,306.08 270.413,306.08C271.122,306.08 271.755,304.858 271.821,303.364C271.887,301.87 272.556,300.647 273.309,300.647C275.303,300.648 273.272,308.709 270.157,313.155C268.739,315.179 267.553,317.435 267.521,318.168C267.428,320.282 265.156,321.305 256.483,323.14C246.797,325.19 238.493,323.702 233.698,319.059C231.953,317.369 229.189,315.249 227.556,314.35C225.479,313.205 225.901,313.999 228.96,316.996C231.364,319.352 233.298,322.041 233.257,322.973C233.216,323.905 234.495,326.443 236.1,328.614C237.705,330.785 240.856,335.403 243.102,338.877C245.349,342.352 248.45,345.97 249.994,346.918C251.538,347.865 252.779,349.149 252.752,349.77C252.724,350.39 253.523,350.898 254.526,350.899C255.529,350.899 256.327,351.417 256.3,352.051C256.272,352.684 258.389,354.305 261.005,355.653C263.622,357.001 265.739,358.622 265.711,359.256C265.684,359.889 266.492,360.408 267.508,360.408C268.524,360.408 273.243,361.974 277.996,363.888C288.501,368.118 304.373,369.531 306.797,366.452C307.655,365.363 310.422,364.488 313.01,364.488C324.058,364.49 349.007,355.377 351.024,350.605C351.276,350.009 355.145,346.701 359.622,343.254C368.228,336.63 379.938,321.499 384.465,311.156C392.757,292.208 393.272,290.451 394.293,277.591C394.856,270.504 395.925,263.934 396.667,262.991C398.524,260.632 401.388,260.833 401.279,263.313C401.229,264.434 400.642,265.35 399.973,265.35C399.287,265.35 398.587,269.198 398.368,274.178C398.154,279.034 398.247,283.007 398.573,283.007C399.921,283.007 404.271,278.205 404.34,276.641C404.418,274.871 408.245,272.142 410.65,272.143C411.424,272.143 409.211,275.962 405.732,280.631C402.254,285.299 398.96,289.883 398.412,290.816C396.895,293.404 405.453,292.991 407.927,290.357C409.042,289.17 413.728,286.183 418.339,283.719C424.48,280.439 429.376,276.312 436.631,268.301C445.843,258.129 446.557,256.952 446.814,251.512C446.965,248.295 447.621,244.793 448.27,243.731C450.123,240.697 438.77,228.21 429.693,223.299C422.613,219.468 421.102,219.176 408.391,219.173L394.709,219.17L394.41,225.961C394.195,230.861 393.639,232.752 392.417,232.752C391.486,232.752 390.368,233.669 389.934,234.789C388.669,238.051 386.621,237.14 386.787,233.388C386.87,231.497 387.774,229.598 388.797,229.168C391.527,228.02 391.238,224.387 387.997,219.13C386.422,216.577 385.41,213.778 385.746,212.91C386.636,210.616 381.252,205.135 372.634,199.56C361.459,192.332 359.894,192.151 355.79,197.607C353.895,200.126 349.504,205.195 346.032,208.87L339.719,215.553L341.564,222.287C344.096,231.529 344.333,247.401 342.054,255.133C341.049,258.542 338.73,262.85 336.9,264.706C328.589,273.137 325.003,276.206 323.465,276.206C322.552,276.206 321.441,276.817 320.994,277.564C319.357,280.305 312.221,278.914 306.85,274.806C299.84,269.445 298.157,267.048 300.014,265.071C301.055,263.964 302.461,264.468 305.291,266.965C309.714,270.866 316.139,274.847 318.013,274.847C318.715,274.847 319.386,272.668 319.503,270.004C319.62,267.341 320.301,264.043 321.016,262.677C322.491,259.859 328.547,257.192 333.468,257.192C336.35,257.193 337.008,256.407 338.571,251.105C340.011,246.22 340.161,242.799 339.33,233.788C338.76,227.612 338.036,222.01 337.72,221.34C337.404,220.67 335.902,223.409 334.384,227.426C332.151,233.33 331.481,234.214 330.886,232.039C330.481,230.559 331.045,226.904 332.14,223.916C333.236,220.928 334.352,217.069 334.62,215.34C334.889,213.611 336.456,211.193 338.102,209.967C341.45,207.472 346.253,202.349 349.926,197.355C351.267,195.531 353.376,192.816 354.612,191.322C357.164,188.238 359.329,182.326 357.798,182.621C354.436,183.268 352.4,182.001 350.848,178.296C349.057,174.023 349.672,169.408 351.828,170.943C352.481,171.408 352.988,172.399 352.955,173.146C352.923,173.893 352.296,174.078 351.563,173.556C350.724,172.958 350.483,173.305 350.913,174.495C351.288,175.532 351.886,177.451 352.241,178.758C352.597,180.066 353.403,181.135 354.033,181.135C354.664,181.136 354.866,180.52 354.482,179.767C354.066,178.95 354.974,179.017 356.738,179.936C359.339,181.29 360.312,180.928 364.913,176.891C374.787,168.228 378.483,164.136 386.015,153.527C390.168,147.678 395.153,141.629 397.092,140.084L400.617,137.276L397.757,134.662C394.863,132.017 394.015,128.171 396.327,128.171C397.019,128.171 398.795,129.086 400.274,130.204C403.731,132.818 417.891,134.622 417.986,132.46C418.023,131.617 416.116,130.003 413.748,128.875C409.463,126.833 409.449,126.795 410.576,120.474C411.484,115.382 413.129,112.423 418.885,105.53C426.092,96.9 430.471,93.458 428.729,98.765C428.139,100.562 428.213,102.369 429.296,102.369C431.668,102.369 435.172,107.724 434.29,110C433.875,111.068 432.321,112.436 430.834,113.039C428.528,113.974 428.422,114.262 430.113,115.001C432.884,116.211 432.39,120.916 429.401,121.778C427.493,122.327 426.887,123.63 426.715,127.552C426.554,131.197 425.609,133.491 423.343,135.733C420.605,138.444 419.337,138.75 413.612,138.086L407.03,137.323L398.295,146.668C393.491,151.808 387.567,159.069 385.131,162.804C382.695,166.538 377.584,172.344 373.773,175.705C365.83,182.711 362.09,186.65 362.027,188.076C362.004,188.623 363.743,189.5 365.893,190.026C368.044,190.552 371.125,192.049 372.74,193.352C374.355,194.656 376.846,196.134 378.276,196.637C381.91,197.917 390.053,207.188 391.332,211.503L392.396,215.096L409.148,215.099C425.139,215.102 426.234,215.282 433.241,219.074C437.278,221.258 442.313,224.985 444.43,227.356C447.841,231.178 448.833,231.572 453.179,230.83C470.236,227.919 470.424,227.94 472.48,232.931C473.525,235.467 474.467,242.239 474.587,248.084C474.707,253.896 475.258,258.975 475.813,259.369C476.367,259.764 476.661,263.718 476.466,268.156C476.137,275.621 475.906,276.225 473.375,276.217C467.343,276.2 461.731,273.408 460.318,269.722C459.088,266.514 458.091,265.984 452.625,265.628L446.346,265.22L438.269,274.275C432.641,280.584 427.65,284.686 421.808,287.802C417.197,290.262 412.511,293.245 411.396,294.432C410,295.919 407.126,296.59 402.159,296.589C395.703,296.588 394.936,296.879 394.826,299.37C394.712,301.962 393.439,304.932 387.313,316.895C383.649,324.05 370.079,342.513 367.292,344.136C365.559,345.145 364.759,346.981 364.614,350.281C364.467,353.602 363.858,354.987 362.544,354.987C361.52,354.987 360.318,355.924 359.874,357.069C359.246,358.691 357.244,359.099 350.812,358.917C344.048,358.726 341.944,359.201 339.165,361.551C337.299,363.129 333.838,364.821 331.472,365.312C328.103,366.011 326.76,367.187 325.276,370.736C322.325,377.793 322.718,380.044 327.344,382.567C331.897,385.051 333.858,389.573 333.272,396.239C333.067,398.573 333.217,401.424 333.605,402.574C334.122,404.104 333.101,405.146 329.802,406.454C325.425,408.19 325.304,408.407 325.714,413.795C326.453,423.502 323.049,426.408 316.045,422.052L316.045,422.052ZM306.719,396.261C309.45,393.179 313.396,390.112 314.69,388.645C317.755,385.174 322.094,375.496 322.296,371.681C322.496,367.909 316.365,366.263 310.891,368.62C308.833,369.507 301.711,370.161 294.872,370.093C284.42,369.988 281.138,369.369 273.162,365.997C267.994,363.812 262.19,361.072 260.265,359.908C258.341,358.744 256.535,358.038 256.253,358.338C254.897,359.781 263.806,378.054 269.327,385.154C276.27,394.082 280.565,396.651 291.098,400.114C301.799,403.631 301.185,402.507 306.719,396.261ZM252.789,321.291C252.816,320.694 254.742,320.455 257.069,320.761C259.501,321.08 261.328,320.718 261.363,319.909C261.397,319.135 262.395,318.222 263.581,317.881C264.766,317.539 263.002,317.208 259.661,317.145C256.319,317.082 252.592,317.842 251.377,318.834C248.67,321.046 248.497,322.376 250.917,322.376C251.921,322.376 252.763,321.888 252.789,321.291ZM332.618,262.144C333.35,261.462 332.581,261.382 330.802,261.954C326.801,263.241 323.302,266.57 323.187,269.201C323.121,270.68 324.287,270.132 327.223,267.303C329.493,265.115 331.921,262.793 332.618,262.144L332.618,262.144ZM472.847,267.489C472.94,265.369 471.731,263.147 469.471,261.284C465.262,257.815 465.122,256.495 468.828,255.187C471.182,254.356 471.286,254.108 469.507,253.571C467.379,252.927 466.764,249.76 468.537,248.573C469.948,247.628 469.734,239.06 468.211,235.561C467.491,233.905 466.179,232.855 465.296,233.226C464.414,233.597 461.099,234.332 457.93,234.858C453.82,235.541 452.524,236.234 453.411,237.276C455.208,239.387 454.704,244.375 452.495,246.342C451.283,247.422 450.491,250.426 450.305,254.657L450.013,261.282L454.979,261.283C459.056,261.283 460.647,262.134 463.869,266.037C468.567,271.729 472.631,272.386 472.847,267.489ZM422.901,123.076C421.906,120.341 422.072,119.536 423.852,118.453C426.858,116.625 425.225,114.199 421.654,115.187C419.728,115.72 418.702,115.405 418.687,114.278C418.662,112.339 415.033,119.849 414.842,122.236C414.775,123.079 416.328,124.529 418.294,125.457C420.26,126.386 421.846,127.835 421.819,128.678C421.791,129.543 422.28,129.378 422.938,128.299C423.649,127.137 423.634,125.089 422.901,123.076L422.901,123.076ZM426.817,109.796C429.224,107.836 429.223,107.802 426.749,107.802C425.366,107.801 423.512,108.718 422.63,109.838C420.453,112.604 423.405,112.573 426.817,109.796L426.817,109.796ZM317.641,411.924C317.305,410.803 319.473,409.49 320.049,409.49C320.626,409.49 320.62,411.585 320.956,412.706C321.291,413.826 321.095,414.743 320.518,414.743C319.942,414.743 317.976,413.045 317.641,411.924ZM326.668,329.775C328.633,327.555 329.898,326.899 330.168,327.959C330.4,328.872 329.553,330.436 328.286,331.435C324.413,334.488 323.408,333.457 326.668,329.775ZM116.991,328.81C117.951,321.291 125.882,317.04 130.805,314.98C133.894,313.687 136.448,312.033 136.48,311.305C136.635,307.787 167.277,280.282 171.059,280.266C172.617,280.259 183.069,271.337 191.578,262.749C202.859,251.364 205.177,245.775 206.119,227.692C206.629,217.916 207.462,212.142 208.623,210.356C209.58,208.882 210.412,206.559 210.472,205.194C210.568,203.006 210.056,203.141 206.165,206.336L201.749,209.961L201.945,205.505C202.053,203.054 203.61,198.467 205.405,195.311C210.581,186.211 221.766,180.343 237.803,178.313C245.43,177.347 247.044,177.581 252.606,180.459C256.039,182.236 258.818,184.375 258.781,185.213C258.744,186.052 259.994,188.741 261.558,191.19C263.123,193.638 264.372,196.348 264.334,197.211C264.212,199.968 265.979,198.949 274.544,191.322C279.151,187.22 285.351,182.723 288.322,181.329C291.293,179.936 302.431,173.14 313.073,166.228C337.207,150.553 352.356,141.748 355.194,141.745C356.395,141.744 360.496,139.286 364.307,136.283C368.118,133.279 372.774,130.091 374.652,129.197C376.531,128.304 378.089,127.112 378.113,126.548C378.139,125.984 382.236,123.017 387.221,119.954C392.205,116.892 398.263,112.923 400.683,111.134C403.102,109.345 406.977,106.488 409.294,104.785C411.61,103.082 414.553,100.659 415.834,99.402C419.821,95.49 425.322,92.533 426.102,93.45C427.04,94.551 419.357,102.368 417.441,102.368C416.663,102.368 413.68,104.201 410.811,106.441C407.943,108.682 405.038,110.515 404.358,110.515C403.677,110.515 401.321,112.348 399.123,114.589C396.924,116.83 394.511,118.663 393.759,118.663C393.007,118.663 390.412,120.41 387.992,122.545C385.572,124.68 381.348,127.67 378.605,129.19C375.863,130.71 372.496,133.269 371.123,134.877C368.64,137.784 356.625,145.041 356.688,143.595C356.705,143.179 354.892,144.001 352.656,145.422C350.419,146.843 346.159,149.063 343.189,150.355C340.219,151.647 333.925,155.433 329.202,158.768C324.479,162.104 320.105,164.833 319.483,164.833C318.86,164.833 317.592,165.797 316.664,166.976C315.736,168.154 312.222,170.751 308.856,172.747C298.119,179.111 295.527,180.737 293.895,182.129C293.018,182.878 290.368,183.892 288.005,184.384C285.26,184.956 281.319,187.676 277.088,191.919C273.446,195.571 269.33,198.956 267.94,199.441C265.268,200.373 264.243,204.214 266.666,204.214C267.449,204.214 269.149,203.189 270.444,201.937C272.654,199.799 272.994,199.828 275.992,202.412C280.343,206.163 280.681,214.064 276.682,218.581C273.906,221.717 273.893,221.834 275.93,225.556C278.399,230.067 278.171,240.359 275.335,252.431C273.767,259.105 272.484,261.506 268.248,265.696C265.404,268.509 259.957,272.481 256.144,274.522C249.951,277.839 247.874,278.234 236.651,278.232C226.781,278.231 223.805,277.784 222.758,276.143C222.025,274.995 219.71,272.662 217.612,270.959C213.289,267.448 207.109,257.315 206.08,252.05C205.418,248.664 205.28,248.773 202.435,254.89C200.809,258.388 198.787,261.25 197.941,261.25C197.096,261.25 192.402,265.378 187.511,270.423C181.577,276.544 175.507,281.263 169.275,284.601C163.044,287.939 156.265,293.21 148.913,300.432C142.851,306.387 138.11,311.516 138.377,311.83C138.928,312.476 129.347,321.002 128.071,321.002C127.615,321.002 127.964,320.085 128.846,318.965C129.728,317.844 129.938,316.928 129.312,316.928C127.571,316.927 120.746,324.925 121.616,325.946C122.036,326.44 121.396,327.649 120.192,328.633C117.402,330.915 116.572,332.098 116.891,329.597L116.991,328.81ZM246.073,274.414C258.864,269.576 268.503,259.437 272.578,246.532C276.307,234.724 275.688,229.557 269.281,219.005C268.238,217.286 268.51,215.468 270.55,210.521C272.944,204.713 275.054,202.32 274.911,205.573C274.878,206.32 275.515,206.931 276.328,206.932C277.249,206.932 277.059,206.056 275.821,204.602C273.948,202.401 273.626,202.408 270.012,204.724L266.187,207.176L259.941,200.257C250.131,189.388 244.895,188.131 237.327,194.826C233.042,198.616 232.22,198.879 228.844,197.541C222.458,195.011 219.828,195.722 215.605,201.121C213.427,203.906 211.632,206.503 211.617,206.893C211.603,207.283 213.756,207.632 216.404,207.668C222.167,207.745 222.092,207.672 222.864,213.938C223.37,218.046 223.054,219.161 221.055,220.325C217.672,222.295 212.725,218.479 214.968,215.63C215.939,214.396 216.021,213.715 215.199,213.715C214.496,213.715 212.798,215.216 211.425,217.051C209.55,219.557 208.571,223.635 207.496,233.432L206.064,246.477L209.684,253.525C211.674,257.401 216.058,263.935 219.426,268.044C225.491,275.443 225.624,275.518 233.387,275.881C237.713,276.084 243.397,275.426 246.073,274.414L246.073,274.414ZM227.549,266.53C223.333,265.149 221.226,259.605 223.855,256.807C224.921,255.672 225.267,255.866 225.192,257.555C225.137,258.808 226.399,260.821 227.996,262.028C232.093,265.127 239.805,263.45 245.326,258.261C249.808,254.048 250.562,254.132 248.231,258.586C246.53,261.838 236.838,268.086 233.75,267.923C232.474,267.855 229.684,267.228 227.549,266.53ZM230.014,246.766C229.641,245.52 229.929,243.87 230.654,243.099C231.56,242.134 231.94,242.417 231.87,244.005C231.671,248.514 235.401,246.504 235.776,241.9C236.048,238.574 236.235,238.258 236.535,240.62C237.203,245.881 239.774,243.108 240.797,236.023C241.939,228.118 243.785,230.788 242.815,238.941C242.334,242.98 241.403,244.584 238.451,246.454C233.63,249.508 230.866,249.61 230.014,246.766ZM220.34,235.175C219.577,234.279 218.998,232.527 219.052,231.283C219.164,228.756 224.29,221.341 225.193,222.401C225.511,222.775 224.522,224.75 222.995,226.791C220.509,230.112 220.403,230.718 221.977,232.567C223.551,234.416 224.138,234.222 227.574,230.712C229.685,228.555 231.378,227.545 231.338,228.468C231.247,230.525 225.065,236.806 223.131,236.805C222.36,236.805 221.104,236.072 220.34,235.175ZM233.781,213.658C233.384,212.878 233.76,211.35 234.616,210.262C235.922,208.603 235.562,208.285 232.375,208.284C230.287,208.284 228.601,207.765 228.629,207.132C228.73,204.836 238.991,200.972 244.983,200.972C250.02,200.973 251.525,201.567 253.385,204.291L255.652,207.608L248.372,208.006C241.37,208.389 241.108,208.532 241.516,211.74C241.891,214.695 241.514,215.076 238.222,215.076C236.177,215.076 234.178,214.437 233.781,213.658ZM250.126,204.382C249.482,203.118 236.341,203.473 235.105,204.789C234.702,205.217 238.054,205.568 242.552,205.569C247.051,205.57 250.459,205.035 250.126,204.382ZM217.631,212.357C219.54,212.357 221.132,211.675 221.169,210.841C221.206,209.992 220.149,209.637 218.77,210.035C217.414,210.425 216.636,210.191 217.041,209.514C217.445,208.836 216.968,208.282 215.98,208.282C212.618,208.282 210.419,209.859 211.013,211.845C211.375,213.054 210.974,213.671 209.983,213.43C209.077,213.209 208.115,214.394 207.804,216.117L207.248,219.198L210.704,215.777C212.719,213.783 215.608,212.357 217.631,212.357ZM219.706,216.432C219.739,215.685 219.219,215.074 218.55,215.073C217.881,215.073 217.307,215.684 217.274,216.431C217.241,217.178 217.762,217.79 218.43,217.79C219.099,217.79 219.673,217.179 219.706,216.432ZM276.928,215.001C276.959,214.298 276.437,213.723 275.768,213.723C275.099,213.722 274.51,214.675 274.459,215.84C274.407,217.004 274.929,217.58 275.618,217.118C276.308,216.656 276.897,215.704 276.928,215.001ZM181.263,289.934C180.56,287.784 178.821,285.38 177.398,284.593C175.975,283.806 175.523,283.121 176.394,283.07C178.382,282.955 183.651,289.542 183.543,292.006C183.416,294.882 182.653,294.188 181.263,289.934Z" style="fill:rgb(3,2,2);fill-rule:nonzero;"/>
                        </g>
                    </g>
                </g>
            </g>
        </g>
        <path d="M491.84,34.235C755.945,34.235 970.366,248.655 970.366,512.761C970.366,776.866 755.945,991.287 491.84,991.287C227.734,991.287 13.314,776.866 13.314,512.761C13.314,248.655 227.734,34.235 491.84,34.235ZM491.84,58.161C742.74,58.161 946.439,261.86 946.439,512.761C946.439,763.661 742.74,967.36 491.84,967.36C240.939,967.36 37.24,763.661 37.24,512.761C37.24,261.86 240.939,58.161 491.84,58.161Z" style="fill:rgb(78,78,78);"/>
    </g>
    <g transform="matrix(1,0,0,1,88.6865,67.7652)">
        <g transform="matrix(0.522014,-0.852937,0.852937,0.522014,-192.733,171.615)">
            <text x="56.751px" y="257.767px" style="font-family:'Arial-BoldMT', 'Arial', sans-serif;font-weight:700;font-size:80px;fill:rgb(78,78,78);">K</text>
        </g>
        <g transform="matrix(0.628485,-0.777822,0.777822,0.628485,-129.732,144.993)">
            <text x="86.916px" y="208.303px" style="font-family:'Arial-BoldMT', 'Arial', sans-serif;font-weight:700;font-size:80px;fill:rgb(78,78,78);">E</text>
        </g>
        <g transform="matrix(0.721175,-0.692752,0.692752,0.721175,-81.9583,129.928)">
            <text x="120.427px" y="166.778px" style="font-family:'Arial-BoldMT', 'Arial', sans-serif;font-weight:700;font-size:80px;fill:rgb(78,78,78);">L</text>
        </g>
        <g transform="matrix(0.798052,-0.602588,0.602588,0.798052,-48.5283,120.565)">
            <text x="155.612px" y="132.684px" style="font-family:'Arial-BoldMT', 'Arial', sans-serif;font-weight:700;font-size:80px;fill:rgb(78,78,78);">L</text>
        </g>
        <g transform="matrix(0.865475,-0.500953,0.500953,0.865475,-25.4132,111.274)">
            <text x="194.477px" y="102.954px" style="font-family:'Arial-BoldMT', 'Arial', sans-serif;font-weight:700;font-size:80px;fill:rgb(78,78,78);">E</text>
        </g>
        <g transform="matrix(0.927059,-0.374916,0.374916,0.927059,-10.8788,95.716)">
            <text x="240.55px" y="75.816px" style="font-family:'Arial-BoldMT', 'Arial', sans-serif;font-weight:700;font-size:80px;fill:rgb(78,78,78);">R</text>
        </g>
        <g transform="matrix(0.97022,-0.242227,0.242227,0.97022,-4.27871,72.8479)">
            <text x="294.125px" y="53.825px" style="font-family:'Arial-BoldMT', 'Arial', sans-serif;font-weight:700;font-size:80px;fill:rgb(78,78,78);">G</text>
        </g>
        <g transform="matrix(0.995028,-0.0995931,0.0995931,0.995028,-2.12477,35.5102)">
            <text x="354.604px" y="39.037px" style="font-family:'Arial-BoldMT', 'Arial', sans-serif;font-weight:700;font-size:80px;fill:rgb(78,78,78);">E</text>
        </g>
        <g transform="matrix(0.999678,0.0253636,-0.0253636,0.999678,0.986049,-10.3305)">
            <text x="407.725px" y="33.705px" style="font-family:'Arial-BoldMT', 'Arial', sans-serif;font-weight:700;font-size:80px;fill:rgb(78,78,78);">S</text>
        </g>
        <g transform="matrix(0.987029,0.160544,-0.160544,0.987029,11.5932,-73.5848)">
            <text x="461.169px" y="34.951px" style="font-family:'Arial-BoldMT', 'Arial', sans-serif;font-weight:700;font-size:80px;fill:rgb(78,78,78);">C</text>
        </g>
        <g transform="matrix(0.95434,0.298721,-0.298721,0.95434,36.8947,-152.818)">
            <text x="518.343px" y="44.28px" style="font-family:'Arial-BoldMT', 'Arial', sans-serif;font-weight:700;font-size:80px;fill:rgb(78,78,78);">H</text>
        </g>
        <g transform="matrix(0.892689,0.450672,-0.450672,0.892689,89.0455,-252.101)">
            <text x="573.897px" y="60.932px" style="font-family:'Arial-BoldMT', 'Arial', sans-serif;font-weight:700;font-size:80px;fill:rgb(78,78,78);">W</text>
        </g>
        <g transform="matrix(0.814645,0.579961,-0.579961,0.814645,172.267,-352.313)">
            <text x="637.312px" y="93.347px" style="font-family:'Arial-BoldMT', 'Arial', sans-serif;font-weight:700;font-size:80px;fill:rgb(78,78,78);">A</text>
        </g>
        <g transform="matrix(0.724006,0.689794,-0.689794,0.724006,276.407,-437.122)">
            <text x="684.455px" y="126.852px" style="font-family:'Arial-BoldMT', 'Arial', sans-serif;font-weight:700;font-size:80px;fill:rgb(78,78,78);">D</text>
        </g>
        <g transform="matrix(0.624996,0.780628,-0.780628,0.624996,402.513,-504.425)">
            <text x="726.275px" y="166.733px" style="font-family:'Arial-BoldMT', 'Arial', sans-serif;font-weight:700;font-size:80px;fill:rgb(78,78,78);">E</text>
        </g>
        <g transform="matrix(0.510393,0.859941,-0.859941,0.510393,551.184,-551.619)">
            <text x="760.021px" y="208.238px" style="font-family:'Arial-BoldMT', 'Arial', sans-serif;font-weight:700;font-size:80px;fill:rgb(78,78,78);">R</text>
        </g>
    </g>
    <g transform="matrix(1,0,0,1,43.6865,22.7652)">
        <g transform="matrix(0.299645,0.954051,-0.954051,0.299645,603.464,399.671)">
            <text x="29.508px" y="610.867px" style="font-family:'Arial-BoldMT', 'Arial', sans-serif;font-weight:700;font-size:43px;fill:rgb(78,78,78);">N</text>
        </g>
        <g transform="matrix(0.367432,0.93005,-0.93005,0.367432,620.272,369.112)">
            <text x="38.787px" y="640.542px" style="font-family:'Arial-BoldMT', 'Arial', sans-serif;font-weight:700;font-size:43px;fill:rgb(78,78,78);">O</text>
        </g>
        <g transform="matrix(0.429668,0.902987,-0.902987,0.429668,635.641,336.849)">
            <text x="51.16px" y="671.619px" style="font-family:'Arial-BoldMT', 'Arial', sans-serif;font-weight:700;font-size:43px;fill:rgb(78,78,78);">S</text>
        </g>
        <g transform="matrix(0.511204,0.85946,-0.85946,0.511204,642.323,286.735)">
            <text x="69.076px" y="708.072px" style="font-family:'Arial-BoldMT', 'Arial', sans-serif;font-weight:700;font-size:43px;fill:rgb(78,78,78);">C</text>
        </g>
        <g transform="matrix(0.566142,0.824308,-0.824308,0.566142,642.524,248.712)">
            <text x="84.993px" y="734.737px" style="font-family:'Arial-BoldMT', 'Arial', sans-serif;font-weight:700;font-size:43px;fill:rgb(78,78,78);">L</text>
        </g>
        <g transform="matrix(0.614889,0.788613,-0.788613,0.614889,635.011,212.619)">
            <text x="99.809px" y="756.484px" style="font-family:'Arial-BoldMT', 'Arial', sans-serif;font-weight:700;font-size:43px;fill:rgb(78,78,78);">A</text>
        </g>
        <g transform="matrix(0.667786,0.744353,-0.744353,0.667786,620.809,170.959)">
            <text x="118.881px" y="780.966px" style="font-family:'Arial-BoldMT', 'Arial', sans-serif;font-weight:700;font-size:43px;fill:rgb(78,78,78);">D</text>
        </g>
        <g transform="matrix(0.714958,0.699167,-0.699167,0.714958,602.037,131.554)">
            <text x="139.677px" y="804.133px" style="font-family:'Arial-BoldMT', 'Arial', sans-serif;font-weight:700;font-size:43px;fill:rgb(78,78,78);">E</text>
        </g>
        <g transform="matrix(0.778291,0.627904,-0.627904,0.778291,560.056,78.4126)">
            <text x="168.992px" y="832.274px" style="font-family:'Arial-BoldMT', 'Arial', sans-serif;font-weight:700;font-size:43px;fill:rgb(78,78,78);">M</text>
        </g>
        <g transform="matrix(0.82367,0.567069,-0.567069,0.82367,519.417,39.0572)">
            <text x="196.905px" y="854.74px" style="font-family:'Arial-BoldMT', 'Arial', sans-serif;font-weight:700;font-size:43px;fill:rgb(78,78,78);">O</text>
        </g>
        <g transform="matrix(0.863197,0.504868,-0.504868,0.863197,471.807,6.22072)">
            <text x="224.425px" y="873.703px" style="font-family:'Arial-BoldMT', 'Arial', sans-serif;font-weight:700;font-size:43px;fill:rgb(78,78,78);">R</text>
        </g>
        <g transform="matrix(0.891918,0.452197,-0.452197,0.891918,429.334,-17.5026)">
            <text x="251.281px" y="889.378px" style="font-family:'Arial-BoldMT', 'Arial', sans-serif;font-weight:700;font-size:43px;fill:rgb(78,78,78);">T</text>
        </g>
        <g transform="matrix(0.910225,0.414113,-0.414113,0.910225,397.833,-32.8871)">
            <text x="274.767px" y="901.119px" style="font-family:'Arial-BoldMT', 'Arial', sans-serif;font-weight:700;font-size:43px;fill:rgb(78,78,78);">I</text>
        </g>
        <g transform="matrix(0.927633,0.373493,-0.373493,0.927633,359.143,-41.086)">
            <text x="285.596px" y="906.243px" style="font-family:'Arial-BoldMT', 'Arial', sans-serif;font-weight:700;font-size:43px;fill:rgb(78,78,78);">S</text>
        </g>
        <g transform="matrix(0.943436,0.331555,-0.331555,0.943436,321.619,-51.6753)">
            <text x="312.259px" y="916.762px" style="font-family:'Arial-BoldMT', 'Arial', sans-serif;font-weight:700;font-size:43px;fill:rgb(78,78,78);">,</text>
        </g>
        <g transform="matrix(0.965521,0.260326,-0.260326,0.965521,252.241,-55.2936)">
            <text x="334.86px" y="924.592px" style="font-family:'Arial-BoldMT', 'Arial', sans-serif;font-weight:700;font-size:43px;fill:rgb(78,78,78);">N</text>
        </g>
        <g transform="matrix(0.981706,0.190405,-0.190405,0.981706,184.267,-52.4007)">
            <text x="364.823px" y="932.713px" style="font-family:'Arial-BoldMT', 'Arial', sans-serif;font-weight:700;font-size:43px;fill:rgb(78,78,78);">O</text>
        </g>
        <g transform="matrix(0.992342,0.123517,-0.123517,0.992342,119.027,-41.9301)">
            <text x="397.682px" y="938.996px" style="font-family:'Arial-BoldMT', 'Arial', sans-serif;font-weight:700;font-size:43px;fill:rgb(78,78,78);">S</text>
        </g>
        <g transform="matrix(0.999528,0.0307105,-0.0307105,0.999528,29.1828,-13.0095)">
            <text x="438.109px" y="943.525px" style="font-family:'Arial-BoldMT', 'Arial', sans-serif;font-weight:700;font-size:43px;fill:rgb(78,78,78);">D</text>
        </g>
        <g transform="matrix(0.999276,-0.0380351,0.0380351,0.999276,-35.5862,18.5259)">
            <text x="469.106px" y="944.54px" style="font-family:'Arial-BoldMT', 'Arial', sans-serif;font-weight:700;font-size:43px;fill:rgb(78,78,78);">O</text>
        </g>
        <g transform="matrix(0.993557,-0.113333,0.113333,0.993557,-103.67,63.0337)">
            <text x="502.557px" y="943.316px" style="font-family:'Arial-BoldMT', 'Arial', sans-serif;font-weight:700;font-size:43px;fill:rgb(78,78,78);">M</text>
        </g>
        <g transform="matrix(0.986195,-0.165586,0.165586,0.986195,-148.048,102.066)">
            <text x="538.116px" y="938.945px" style="font-family:'Arial-BoldMT', 'Arial', sans-serif;font-weight:700;font-size:43px;fill:rgb(78,78,78);">I</text>
        </g>
        <g transform="matrix(0.977314,-0.211795,0.211795,0.977314,-186.016,137.734)">
            <text x="549.933px" y="937.187px" style="font-family:'Arial-BoldMT', 'Arial', sans-serif;font-weight:700;font-size:43px;fill:rgb(78,78,78);">N</text>
        </g>
        <g transform="matrix(0.966025,-0.258447,0.258447,0.966025,-220.745,181.562)">
            <text x="580.208px" y="930.391px" style="font-family:'Arial-BoldMT', 'Arial', sans-serif;font-weight:700;font-size:43px;fill:rgb(78,78,78);">I</text>
        </g>
        <g transform="matrix(0.945465,-0.325723,0.325723,0.945465,-268.338,246.444)">
            <text x="601.806px" y="924.581px" style="font-family:'Arial-BoldMT', 'Arial', sans-serif;font-weight:700;font-size:43px;fill:rgb(78,78,78);">A</text>
        </g>
        <g transform="matrix(0.920381,-0.391022,0.391022,0.920381,-307.335,319.601)">
            <text x="631.143px" y="914.491px" style="font-family:'Arial-BoldMT', 'Arial', sans-serif;font-weight:700;font-size:43px;fill:rgb(78,78,78);">B</text>
        </g>
        <g transform="matrix(0.893373,-0.449315,0.449315,0.893373,-335.075,392.641)">
            <text x="659.739px" y="902.307px" style="font-family:'Arial-BoldMT', 'Arial', sans-serif;font-weight:700;font-size:43px;fill:rgb(78,78,78);">S</text>
        </g>
        <g transform="matrix(0.859556,-0.511042,0.511042,0.859556,-358.31,475.201)">
            <text x="685.415px" y="889.501px" style="font-family:'Arial-BoldMT', 'Arial', sans-serif;font-weight:700;font-size:43px;fill:rgb(78,78,78);">Q</text>
        </g>
        <g transform="matrix(0.822286,-0.569074,0.569074,0.822286,-369.527,561.45)">
            <text x="714.173px" y="872.373px" style="font-family:'Arial-BoldMT', 'Arial', sans-serif;font-weight:700;font-size:43px;fill:rgb(78,78,78);">U</text>
        </g>
        <g transform="matrix(0.782491,-0.622662,0.622662,0.782491,-371.287,646.477)">
            <text x="739.69px" y="854.679px" style="font-family:'Arial-BoldMT', 'Arial', sans-serif;font-weight:700;font-size:43px;fill:rgb(78,78,78);">E</text>
        </g>
        <g transform="matrix(0.725929,-0.68777,0.68777,0.725929,-358.788,757.577)">
            <text x="771.16px" y="828.97px" style="font-family:'Arial-BoldMT', 'Arial', sans-serif;font-weight:700;font-size:43px;fill:rgb(78,78,78);">F</text>
        </g>
        <g transform="matrix(0.686417,-0.727208,0.727208,0.686417,-343.676,828.308)">
            <text x="788.598px" y="812.652px" style="font-family:'Arial-BoldMT', 'Arial', sans-serif;font-weight:700;font-size:43px;fill:rgb(78,78,78);">A</text>
        </g>
        <g transform="matrix(0.635568,-0.772045,0.772045,0.635568,-314.79,913.217)">
            <text x="809.925px" y="790.048px" style="font-family:'Arial-BoldMT', 'Arial', sans-serif;font-weight:700;font-size:43px;fill:rgb(78,78,78);">C</text>
        </g>
        <g transform="matrix(0.585741,-0.810498,0.810498,0.585741,-277.16,989.73)">
            <text x="829.623px" y="765.997px" style="font-family:'Arial-BoldMT', 'Arial', sans-serif;font-weight:700;font-size:43px;fill:rgb(78,78,78);">T</text>
        </g>
        <g transform="matrix(0.551205,-0.83437,0.83437,0.551205,-242.1,1039.13)">
            <text x="844.893px" y="744.615px" style="font-family:'Arial-BoldMT', 'Arial', sans-serif;font-weight:700;font-size:43px;fill:rgb(78,78,78);">I</text>
        </g>
        <g transform="matrix(0.491442,-0.870911,0.870911,0.491442,-194.749,1115.7)">
            <text x="857.952px" y="724.607px" style="font-family:'Arial-BoldMT', 'Arial', sans-serif;font-weight:700;font-size:43px;fill:rgb(78,78,78);">S</text>
        </g>
        <g transform="matrix(0.432932,-0.901426,0.901426,0.432932,-136.158,1182.85)">
            <text x="872.067px" y="699.646px" style="font-family:'Arial-BoldMT', 'Arial', sans-serif;font-weight:700;font-size:43px;fill:rgb(78,78,78);">U</text>
        </g>
        <g transform="matrix(0.36993,-0.92906,0.92906,0.36993,-66.0156,1245.86)">
            <text x="885.523px" y="671.601px" style="font-family:'Arial-BoldMT', 'Arial', sans-serif;font-weight:700;font-size:43px;fill:rgb(78,78,78);">N</text>
        </g>
        <g transform="matrix(0.309968,-0.950747,0.950747,0.309968,7.84695,1296.26)">
            <text x="896.936px" y="642.724px" style="font-family:'Arial-BoldMT', 'Arial', sans-serif;font-weight:700;font-size:43px;fill:rgb(78,78,78);">T</text>
        </g>
        <g transform="matrix(0.279602,-0.960116,0.960116,0.279602,53.4264,1315.83)">
            <text x="903.553px" y="622.312px" style="font-family:'Arial-BoldMT', 'Arial', sans-serif;font-weight:700;font-size:43px;fill:rgb(78,78,78);">.</text>
        </g>
    </g>
</svg>
